<svg width="487" height="187" viewBox="0 0 487 187" fill="none" xmlns="http://www.w3.org/2000/svg">
<path d="M211.238 78.776L222.95 108.968C223.43 110.184 223.974 111 224.582 111.416C225.19 111.8 225.75 112.008 226.262 112.04V113C225.622 112.936 224.838 112.904 223.91 112.904C222.982 112.872 222.054 112.856 221.126 112.856C219.878 112.856 218.71 112.872 217.622 112.904C216.534 112.904 215.654 112.936 214.982 113V112.04C216.614 111.976 217.654 111.704 218.102 111.224C218.55 110.712 218.454 109.64 217.814 108.008L208.886 84.152L209.654 83.528L201.302 105.224C200.79 106.504 200.486 107.592 200.39 108.488C200.294 109.352 200.374 110.04 200.63 110.552C200.918 111.064 201.382 111.432 202.022 111.656C202.694 111.88 203.526 112.008 204.518 112.04V113C203.622 112.936 202.678 112.904 201.686 112.904C200.726 112.872 199.83 112.856 198.998 112.856C198.198 112.856 197.51 112.872 196.934 112.904C196.39 112.904 195.878 112.936 195.398 113V112.04C196.038 111.88 196.694 111.512 197.366 110.936C198.038 110.328 198.646 109.304 199.19 107.864L210.47 78.776C210.598 78.776 210.726 78.776 210.854 78.776C210.982 78.776 211.11 78.776 211.238 78.776ZM217.094 99.176V100.136H202.79L203.27 99.176H217.094ZM252.019 87.752V107.816C252.019 109.256 252.275 110.328 252.787 111.032C253.331 111.704 254.291 112.04 255.667 112.04V113.048C254.675 112.952 253.683 112.904 252.691 112.904C251.763 112.904 250.867 112.952 250.003 113.048C249.171 113.144 248.403 113.32 247.699 113.576V107.912C246.899 109.992 245.763 111.48 244.291 112.376C242.851 113.24 241.363 113.672 239.827 113.672C238.707 113.672 237.731 113.512 236.899 113.192C236.067 112.872 235.379 112.424 234.835 111.848C234.227 111.208 233.811 110.376 233.587 109.352C233.363 108.328 233.251 107.064 233.251 105.56V93.512C233.251 92.072 232.995 91.016 232.483 90.344C231.971 89.64 231.011 89.288 229.603 89.288V88.28C230.627 88.376 231.619 88.424 232.579 88.424C233.507 88.424 234.387 88.376 235.219 88.28C236.083 88.152 236.867 87.976 237.571 87.752V106.616C237.571 107.608 237.635 108.52 237.763 109.352C237.891 110.184 238.211 110.856 238.723 111.368C239.235 111.88 240.067 112.136 241.219 112.136C242.467 112.136 243.571 111.752 244.531 110.984C245.523 110.216 246.291 109.176 246.835 107.864C247.411 106.552 247.699 105.08 247.699 103.448V93.512C247.699 92.072 247.443 91.016 246.931 90.344C246.419 89.64 245.459 89.288 244.051 89.288V88.28C245.075 88.376 246.067 88.424 247.027 88.424C247.955 88.424 248.835 88.376 249.667 88.28C250.531 88.152 251.315 87.976 252.019 87.752ZM277.366 87.608C278.23 87.608 278.982 87.784 279.622 88.136C280.294 88.488 280.806 88.952 281.158 89.528C281.542 90.072 281.734 90.696 281.734 91.4C281.734 92.2 281.478 92.904 280.966 93.512C280.486 94.12 279.83 94.424 278.998 94.424C278.326 94.424 277.734 94.216 277.222 93.8C276.71 93.352 276.454 92.728 276.454 91.928C276.454 91.32 276.614 90.808 276.934 90.392C277.286 89.944 277.67 89.592 278.086 89.336C277.862 89.016 277.526 88.856 277.078 88.856C276.086 88.856 275.174 89.16 274.342 89.768C273.51 90.344 272.806 91.096 272.23 92.024C271.654 92.952 271.206 93.944 270.886 95C270.566 96.024 270.406 96.984 270.406 97.88V108.056C270.406 109.624 270.854 110.68 271.75 111.224C272.678 111.736 273.926 111.992 275.494 111.992V113C274.758 112.968 273.718 112.936 272.374 112.904C271.03 112.84 269.606 112.808 268.102 112.808C267.014 112.808 265.926 112.84 264.838 112.904C263.782 112.936 262.982 112.968 262.438 113V111.992C263.75 111.992 264.678 111.752 265.222 111.272C265.798 110.792 266.086 109.88 266.086 108.536V93.512C266.086 92.072 265.83 91.016 265.318 90.344C264.806 89.64 263.846 89.288 262.438 89.288V88.28C263.462 88.376 264.454 88.424 265.414 88.424C266.342 88.424 267.222 88.376 268.054 88.28C268.918 88.152 269.702 87.976 270.406 87.752V93.752C270.758 92.824 271.254 91.896 271.894 90.968C272.566 90.008 273.366 89.208 274.294 88.568C275.222 87.928 276.246 87.608 277.366 87.608ZM298.955 87.608C301.003 87.608 302.843 88.056 304.475 88.952C306.107 89.848 307.403 91.256 308.363 93.176C309.355 95.096 309.851 97.592 309.851 100.664C309.851 103.736 309.355 106.232 308.363 108.152C307.403 110.04 306.107 111.432 304.475 112.328C302.843 113.224 301.003 113.672 298.955 113.672C296.939 113.672 295.099 113.224 293.435 112.328C291.803 111.432 290.491 110.04 289.499 108.152C288.539 106.232 288.059 103.736 288.059 100.664C288.059 97.592 288.539 95.096 289.499 93.176C290.491 91.256 291.803 89.848 293.435 88.952C295.099 88.056 296.939 87.608 298.955 87.608ZM298.955 88.568C297.131 88.568 295.627 89.512 294.443 91.4C293.291 93.288 292.715 96.376 292.715 100.664C292.715 104.952 293.291 108.04 294.443 109.928C295.627 111.784 297.131 112.712 298.955 112.712C300.779 112.712 302.267 111.784 303.419 109.928C304.603 108.04 305.195 104.952 305.195 100.664C305.195 96.376 304.603 93.288 303.419 91.4C302.267 89.512 300.779 88.568 298.955 88.568ZM332.74 87.608C333.604 87.608 334.356 87.784 334.996 88.136C335.668 88.488 336.18 88.952 336.532 89.528C336.916 90.072 337.108 90.696 337.108 91.4C337.108 92.2 336.852 92.904 336.34 93.512C335.86 94.12 335.204 94.424 334.372 94.424C333.7 94.424 333.108 94.216 332.596 93.8C332.084 93.352 331.828 92.728 331.828 91.928C331.828 91.32 331.988 90.808 332.308 90.392C332.66 89.944 333.044 89.592 333.46 89.336C333.236 89.016 332.9 88.856 332.452 88.856C331.46 88.856 330.548 89.16 329.716 89.768C328.884 90.344 328.18 91.096 327.604 92.024C327.028 92.952 326.58 93.944 326.26 95C325.94 96.024 325.78 96.984 325.78 97.88V108.056C325.78 109.624 326.228 110.68 327.124 111.224C328.052 111.736 329.3 111.992 330.868 111.992V113C330.132 112.968 329.092 112.936 327.748 112.904C326.404 112.84 324.98 112.808 323.476 112.808C322.388 112.808 321.3 112.84 320.212 112.904C319.156 112.936 318.356 112.968 317.812 113V111.992C319.124 111.992 320.052 111.752 320.596 111.272C321.172 110.792 321.46 109.88 321.46 108.536V93.512C321.46 92.072 321.204 91.016 320.692 90.344C320.18 89.64 319.22 89.288 317.812 89.288V88.28C318.836 88.376 319.828 88.424 320.788 88.424C321.716 88.424 322.596 88.376 323.428 88.28C324.292 88.152 325.076 87.976 325.78 87.752V93.752C326.132 92.824 326.628 91.896 327.268 90.968C327.94 90.008 328.74 89.208 329.668 88.568C330.596 87.928 331.62 87.608 332.74 87.608ZM350.323 113.336C349.011 113.336 347.875 113.096 346.915 112.616C345.955 112.104 345.219 111.4 344.707 110.504C344.227 109.608 343.987 108.568 343.987 107.384C343.987 105.976 344.307 104.824 344.947 103.928C345.619 103.032 346.467 102.312 347.491 101.768C348.515 101.224 349.587 100.776 350.707 100.424C351.859 100.04 352.947 99.688 353.971 99.368C354.995 99.016 355.827 98.616 356.467 98.168C357.139 97.72 357.475 97.128 357.475 96.392V93.416C357.475 92.072 357.267 91.048 356.851 90.344C356.467 89.64 355.939 89.176 355.267 88.952C354.595 88.696 353.843 88.568 353.011 88.568C352.211 88.568 351.347 88.68 350.419 88.904C349.523 89.128 348.803 89.592 348.259 90.296C348.867 90.424 349.395 90.744 349.843 91.256C350.291 91.768 350.515 92.424 350.515 93.224C350.515 94.024 350.259 94.664 349.747 95.144C349.235 95.592 348.579 95.816 347.779 95.816C346.851 95.816 346.163 95.528 345.715 94.952C345.299 94.344 345.091 93.672 345.091 92.936C345.091 92.104 345.299 91.432 345.715 90.92C346.131 90.408 346.659 89.928 347.299 89.48C348.035 88.968 348.979 88.536 350.131 88.184C351.315 87.8 352.643 87.608 354.115 87.608C355.427 87.608 356.547 87.768 357.475 88.088C358.403 88.376 359.171 88.808 359.779 89.384C360.611 90.152 361.155 91.096 361.411 92.216C361.667 93.304 361.795 94.616 361.795 96.152V109.496C361.795 110.296 361.907 110.872 362.131 111.224C362.387 111.576 362.771 111.752 363.283 111.752C363.635 111.752 363.971 111.672 364.291 111.512C364.611 111.352 364.995 111.096 365.443 110.744L365.971 111.56C365.299 112.072 364.659 112.504 364.051 112.856C363.443 113.176 362.627 113.336 361.603 113.336C360.675 113.336 359.907 113.176 359.299 112.856C358.691 112.536 358.227 112.072 357.907 111.464C357.619 110.824 357.475 110.024 357.475 109.064C356.611 110.504 355.571 111.576 354.355 112.28C353.171 112.984 351.827 113.336 350.323 113.336ZM352.051 111.416C353.107 111.416 354.083 111.112 354.979 110.504C355.907 109.896 356.739 108.984 357.475 107.768V98.36C357.091 98.904 356.531 99.368 355.795 99.752C355.059 100.104 354.259 100.472 353.395 100.856C352.531 101.208 351.699 101.64 350.899 102.152C350.131 102.632 349.491 103.272 348.979 104.072C348.467 104.872 348.211 105.912 348.211 107.192C348.211 108.472 348.547 109.496 349.219 110.264C349.923 111.032 350.867 111.416 352.051 111.416ZM405.924 113.192C403.012 113.192 400.74 112.52 399.108 111.176C398.5 110.696 397.668 109.768 396.612 108.392L396.228 108.728C395.652 109.336 394.98 109.896 394.212 110.408C393.476 110.888 392.644 111.352 391.716 111.8C389.796 112.632 387.924 113.048 386.1 113.048C383.604 113.048 381.524 112.36 379.86 110.984C378.164 109.576 377.316 107.848 377.316 105.8C377.316 103.624 378.308 101.448 380.292 99.272C380.42 99.112 380.548 98.968 380.676 98.84C380.836 98.68 380.98 98.536 381.108 98.408L383.508 96.056C383.764 95.8 384.196 95.384 384.804 94.808C385.444 94.232 386.292 93.496 387.348 92.6L386.868 91.736C386.452 91.128 386.1 90.552 385.812 90.008C385.524 89.464 385.284 88.952 385.092 88.472L384.9 88.04C384.612 87.56 384.468 87.144 384.468 86.792C384.468 86.536 384.532 86.328 384.66 86.168C384.724 85.464 384.948 84.936 385.332 84.584L387.684 82.232C387.748 82.168 387.812 82.104 387.876 82.04C387.972 81.944 388.068 81.864 388.164 81.8C389.252 81 390.436 80.6 391.716 80.6C392.772 80.6 393.62 80.872 394.26 81.416C394.996 82.024 395.364 82.824 395.364 83.816C395.364 84.04 395.348 84.28 395.316 84.536C395.284 84.792 395.22 85.048 395.124 85.304C394.9 86.04 394.276 86.92 393.252 87.944L390.9 90.344C390.676 90.536 390.452 90.744 390.228 90.968C390.036 91.16 389.828 91.368 389.604 91.592C393.764 97.96 396.868 102.36 398.916 104.792C400.356 102.488 401.092 99.912 401.124 97.064C401.156 97 401.172 96.92 401.172 96.824C401.172 96.728 401.172 96.664 401.172 96.632C401.172 96.248 401.14 95.928 401.076 95.672C399.956 95.608 398.82 95.56 397.668 95.528C396.548 95.464 395.412 95.432 394.26 95.432L395.412 94.424L408.228 94.472C408.26 94.472 408.276 94.488 408.276 94.52C408.276 94.68 407.892 95 407.124 95.48C406.356 96.024 405.796 96.264 405.444 96.2C404.836 96.104 404.148 96.008 403.38 95.912C403.22 99.816 401.988 103.048 399.684 105.608C400.068 106.024 400.5 106.504 400.98 107.048C401.46 107.56 402.004 108.136 402.612 108.776C405.14 111.08 407.46 112.2 409.572 112.136L409.14 113C408.532 113.032 407.956 113.064 407.412 113.096C406.868 113.16 406.372 113.192 405.924 113.192ZM389.172 90.968C390.868 89.4 391.876 88.312 392.196 87.704C392.548 87.128 392.724 86.472 392.724 85.736C392.724 84.968 392.516 84.376 392.1 83.96C391.332 83.192 390.42 82.808 389.364 82.808C387.7 82.808 386.868 83.656 386.868 85.352C386.868 86.696 387.38 88.152 388.404 89.72L389.172 90.968ZM389.076 110.36C390.516 110.36 392.052 109.992 393.684 109.256C394.516 108.904 395.332 108.392 396.132 107.72L392.052 101.096C391.668 100.488 391.124 99.56 390.42 98.312C389.716 97.032 388.852 95.432 387.828 93.512L384.66 96.728C382.74 98.744 381.78 100.936 381.78 103.304C381.78 105.256 382.452 106.904 383.796 108.248C385.204 109.656 386.964 110.36 389.076 110.36ZM434.051 78.344C436.163 78.344 437.891 78.664 439.235 79.304C440.611 79.912 441.827 80.632 442.883 81.464C443.523 81.944 444.003 82.008 444.323 81.656C444.675 81.272 444.915 80.392 445.043 79.016H446.147C446.083 80.2 446.035 81.64 446.003 83.336C445.971 85.032 445.955 87.272 445.955 90.056H444.851C444.627 88.68 444.419 87.592 444.227 86.792C444.035 85.96 443.795 85.256 443.507 84.68C443.251 84.104 442.899 83.528 442.451 82.952C441.459 81.64 440.211 80.696 438.707 80.12C437.203 79.512 435.619 79.208 433.955 79.208C432.387 79.208 430.963 79.608 429.683 80.408C428.435 81.176 427.347 82.296 426.419 83.768C425.523 85.24 424.819 87.016 424.307 89.096C423.827 91.176 423.587 93.512 423.587 96.104C423.587 98.792 423.859 101.176 424.403 103.256C424.947 105.304 425.699 107.032 426.659 108.44C427.651 109.848 428.803 110.92 430.115 111.656C431.459 112.36 432.899 112.712 434.435 112.712C435.875 112.712 437.379 112.424 438.947 111.848C440.515 111.272 441.747 110.344 442.643 109.064C443.347 108.136 443.827 107.128 444.083 106.04C444.371 104.952 444.627 103.432 444.851 101.48H445.955C445.955 104.392 445.971 106.744 446.003 108.536C446.035 110.296 446.083 111.784 446.147 113H445.043C444.915 111.624 444.691 110.76 444.371 110.408C444.083 110.056 443.587 110.104 442.883 110.552C441.699 111.384 440.435 112.12 439.091 112.76C437.779 113.368 436.083 113.672 434.003 113.672C430.963 113.672 428.291 112.984 425.987 111.608C423.715 110.232 421.939 108.248 420.659 105.656C419.411 103.064 418.787 99.944 418.787 96.296C418.787 92.712 419.443 89.576 420.755 86.888C422.067 84.2 423.859 82.104 426.131 80.6C428.435 79.096 431.075 78.344 434.051 78.344ZM465.658 78.344C468.698 78.344 471.354 79.032 473.626 80.408C475.93 81.784 477.706 83.768 478.954 86.36C480.234 88.92 480.874 92.04 480.874 95.72C480.874 99.304 480.218 102.44 478.906 105.128C477.626 107.816 475.834 109.912 473.53 111.416C471.226 112.92 468.586 113.672 465.61 113.672C462.57 113.672 459.898 112.984 457.594 111.608C455.322 110.232 453.546 108.248 452.266 105.656C451.018 103.064 450.394 99.944 450.394 96.296C450.394 92.712 451.05 89.576 452.362 86.888C453.674 84.2 455.466 82.104 457.738 80.6C460.042 79.096 462.682 78.344 465.658 78.344ZM465.466 79.208C463.386 79.208 461.578 79.928 460.042 81.368C458.506 82.808 457.306 84.792 456.442 87.32C455.61 89.848 455.194 92.776 455.194 96.104C455.194 99.496 455.658 102.456 456.586 104.984C457.546 107.48 458.826 109.416 460.426 110.792C462.058 112.136 463.85 112.808 465.802 112.808C467.882 112.808 469.69 112.088 471.226 110.648C472.762 109.208 473.946 107.224 474.778 104.696C475.642 102.136 476.074 99.208 476.074 95.912C476.074 92.488 475.594 89.528 474.634 87.032C473.706 84.536 472.442 82.616 470.842 81.272C469.242 79.896 467.45 79.208 465.466 79.208Z" fill="white"/>
<path d="M116.863 0.0109258C117.234 0.00732026 117.605 0.00371476 117.987 0C121.538 0.490295 124.57 2.03268 127.636 3.81309C128.012 4.02787 128.389 4.24265 128.777 4.46394C129.943 5.13113 131.106 5.80405 132.268 6.47898C132.622 6.6841 132.976 6.88922 133.341 7.10055C135.073 8.10555 136.802 9.11528 138.53 10.1282C140.735 11.4199 142.947 12.6983 145.161 13.9741C145.538 14.1917 145.916 14.4094 146.305 14.6336C147.071 15.0748 147.836 15.5159 148.602 15.9569C149.743 16.6144 150.884 17.2724 152.025 17.9306C152.4 18.147 152.775 18.3634 153.161 18.5864C153.913 19.02 154.664 19.4539 155.415 19.8881C157.182 20.9087 158.95 21.9267 160.723 22.9353C161.352 23.2929 161.98 23.6514 162.608 24.0101C163.396 24.4601 164.185 24.9087 164.976 25.3553C170.158 28.3199 170.158 28.3199 170.727 30.2535C170.897 32.0878 170.687 33.2519 169.678 34.7986C167.713 36.6865 165.308 37.9105 162.948 39.2344C162.505 39.4844 162.062 39.7346 161.62 39.9848C160.744 40.4794 159.868 40.9727 158.991 41.465C157.973 42.0381 156.958 42.6162 155.944 43.1978C152.685 45.0576 149.39 46.6879 145.903 48.0843C145.568 48.2208 145.233 48.3572 144.888 48.4978C126.659 55.747 104.953 55.1997 86.948 47.6254C83.0362 45.92 79.3102 43.9435 75.6289 41.7911C75.3038 41.6022 74.9787 41.4133 74.6437 41.2187C73.2848 40.429 71.9259 39.6392 70.5722 38.8407C68.0873 37.3771 65.5803 35.9549 63.0688 34.5375C62.696 34.327 62.3232 34.1164 61.9391 33.8995C61.025 33.3833 60.1108 32.8672 59.1966 32.3512C59.1953 32.9808 59.1953 32.9808 59.1941 33.623C59.174 43.5858 59.1486 53.5485 59.1165 63.5112C59.1126 64.7374 59.1087 65.9637 59.1048 67.1899C59.1041 67.434 59.1033 67.6781 59.1025 67.9296C59.0901 71.8825 59.0814 75.8353 59.0741 79.7881C59.0665 83.844 59.0549 87.8999 59.0397 91.9558C59.0313 94.234 59.0248 96.5121 59.0226 98.7903C59.0205 100.934 59.0135 103.078 59.0028 105.221C58.9997 106.008 58.9984 106.796 58.9991 107.583C58.9996 108.657 58.9938 109.731 58.9864 110.805C58.9889 111.274 58.9889 111.274 58.9915 111.751C58.9651 114.057 58.4669 115.492 56.924 117.266C55.6599 118.223 54.4732 118.21 52.9288 118.176C50.9148 117.863 49.3401 116.784 47.6371 115.715C47.038 115.354 46.4388 114.993 45.8391 114.633C45.2206 114.26 44.6042 113.883 43.9881 113.506C42.0728 112.34 40.1219 111.234 38.1754 110.121C34.9241 108.248 31.6813 106.36 28.4416 104.467C25.8927 102.979 23.3385 101.5 20.7816 100.025C20.4082 99.8098 20.0349 99.5941 19.6502 99.3719C17.8809 98.3508 16.11 97.3327 14.333 96.325C13.713 95.9732 13.0936 95.6203 12.4744 95.2671C11.7004 94.8261 10.9253 94.3869 10.1489 93.9501C5.58576 91.3438 2.13957 88.5481 0.459662 83.3964C0.0477825 81.1721 0.0476347 78.9699 0.0390197 76.7125C0.0370268 76.3033 0.0350339 75.894 0.0329806 75.4724C0.029685 74.6067 0.0273956 73.7409 0.0260453 72.8752C0.0226737 71.5694 0.0118279 70.2638 0.000779499 68.958C-0.0458481 58.4947 1.9892 48.9335 8.85065 40.7422C9.1418 40.3938 9.43294 40.0454 9.73291 39.6865C15.0547 33.5149 21.9617 29.4807 29.8281 27.4565C30.2085 27.3456 30.5889 27.2347 30.9808 27.1205C36.0028 25.8109 41.9334 25.8519 46.9597 27.1068C47.1914 27.1614 47.4231 27.2159 47.6619 27.2721C51.0787 28.0858 54.0994 29.1323 57.1617 30.8626C58.2727 31.3581 58.4461 31.3342 59.5462 30.9527C60.0882 30.6836 60.6212 30.3961 61.1468 30.0964C61.6193 29.8284 61.6193 29.8284 62.1012 29.5551C62.4407 29.3601 62.7801 29.1651 63.1299 28.9642C63.4862 28.7611 63.8426 28.558 64.2097 28.3488C67.4271 26.5106 70.6269 24.6424 73.8248 22.7707C77.1811 20.8077 80.5521 18.8704 83.9213 16.9296C85.8193 15.8361 87.7166 14.7411 89.6139 13.6463C90.3692 13.2106 91.1244 12.775 91.8797 12.3393C93.8061 11.2279 95.7321 10.1157 97.6579 9.00326C98.7956 8.34667 99.9339 7.69139 101.072 7.03619C102.491 6.21929 103.905 5.396 105.317 4.56697C105.961 4.19185 106.604 3.81673 107.248 3.44162C107.531 3.27343 107.814 3.10523 108.106 2.93195C110.815 1.36084 113.673 -0.0200047 116.863 0.0109258Z" fill="white"/>
<path d="M123.527 69.0618C124.792 69.5233 125.912 70.1674 127.067 70.8536C127.398 71.0418 127.728 71.2301 128.069 71.424C129.124 72.0275 130.172 72.6416 131.219 73.2573C131.901 73.6523 132.583 74.047 133.265 74.4413C134.661 75.2504 136.053 76.0644 137.444 76.8819C139.66 78.1836 141.885 79.4695 144.112 80.7523C144.489 80.9699 144.867 81.1875 145.256 81.4117C146.021 81.8529 146.787 82.2941 147.553 82.7352C148.694 83.3927 149.835 84.0507 150.976 84.7088C151.351 84.9252 151.726 85.1415 152.112 85.3645C152.865 85.7987 153.617 86.2332 154.369 86.6679C156.124 87.681 157.879 88.6921 159.638 89.6955C160.256 90.0479 160.873 90.4009 161.49 90.7542C162.261 91.1949 163.032 91.6343 163.804 92.0721C169.848 95.5351 169.848 95.5351 172.125 98.0806C172.356 98.3258 172.587 98.571 172.825 98.8236C175.395 102.519 175.676 106.012 175.693 110.371C175.695 110.781 175.697 111.191 175.699 111.613C175.702 112.481 175.704 113.348 175.706 114.215C175.709 115.525 175.72 116.834 175.731 118.144C175.751 122.53 175.697 126.687 174.573 130.945C174.483 131.286 174.394 131.627 174.302 131.978C174.045 132.883 173.763 133.77 173.458 134.66C173.353 134.97 173.248 135.279 173.14 135.598C171.659 139.793 169.453 143.318 166.531 146.678C166.165 147.114 166.165 147.114 165.791 147.559C159.528 154.814 149.939 159.883 140.309 160.663C136.422 160.836 132.58 160.843 128.772 159.964C128.458 159.904 128.145 159.844 127.821 159.783C124.584 159.093 121.611 157.729 118.596 156.398C118.036 156.162 117.461 155.961 116.885 155.769C115.952 156.209 115.086 156.671 114.197 157.189C113.921 157.346 113.645 157.503 113.361 157.665C112.435 158.194 111.513 158.729 110.591 159.265C110.271 159.451 109.951 159.637 109.621 159.828C107.884 160.837 106.149 161.85 104.416 162.865C101.038 164.842 97.6455 166.791 94.2546 168.744C93.1225 169.397 91.9909 170.05 90.8594 170.704C87.7653 172.492 84.6709 174.279 81.5671 176.05C81.3621 176.167 81.157 176.284 80.9458 176.404C80.1193 176.876 79.2927 177.347 78.4659 177.818C76.2556 179.077 74.0505 180.344 71.8582 181.634C71.4808 181.856 71.1034 182.078 70.7145 182.307C70.0093 182.722 69.3048 183.14 68.6014 183.558C65.3774 185.46 62.5796 186.917 58.7814 186.973C58.4159 186.982 58.0504 186.991 57.6738 187C54.5272 186.717 51.9272 185.427 49.2104 183.892C48.7052 183.611 48.7052 183.611 48.1899 183.325C45.7347 181.954 43.3057 180.541 40.8891 179.103C38.9097 177.928 36.9142 176.781 34.9195 175.632C34.533 175.409 34.1465 175.186 33.7482 174.957C32.5582 174.271 31.368 173.586 30.1777 172.9C24.9884 169.912 19.8013 166.919 14.6345 163.892C13.3945 163.166 12.1504 162.448 10.9006 161.74C10.6261 161.582 10.3517 161.425 10.0689 161.263C9.56814 160.977 9.06585 160.693 8.56169 160.412C6.81138 159.405 5.65135 158.408 5.00475 156.468C4.81585 154.466 5.12655 153.476 6.40325 151.923C7.60971 150.884 8.85939 150.072 10.2423 149.287C10.44 149.174 10.6377 149.061 10.8414 148.945C11.4807 148.581 12.1213 148.22 12.762 147.858C13.2076 147.606 13.653 147.354 14.0985 147.102C14.7642 146.725 15.4301 146.348 16.0965 145.973C17.3111 145.288 18.5215 144.597 19.7272 143.896C26.6602 139.9 34.0831 136.978 41.8901 135.228C42.1966 135.159 42.503 135.089 42.8187 135.018C48.0187 133.916 53.2609 133.608 58.5629 133.633C58.8425 133.634 59.122 133.634 59.4101 133.635C64.0634 133.65 68.6007 133.92 73.1815 134.791C73.4364 134.838 73.6912 134.885 73.9537 134.933C84.2289 136.889 93.5489 141.368 102.451 146.698C104.552 147.942 106.677 149.144 108.8 150.349C109.6 150.804 110.4 151.26 111.2 151.715C111.539 151.907 111.877 152.1 112.226 152.298C113.226 152.877 114.218 153.467 115.209 154.063C115.523 154.251 115.837 154.44 116.161 154.634C116.4 154.778 116.638 154.921 116.885 155.069C116.884 154.648 116.883 154.226 116.882 153.792C116.859 143.787 116.842 133.781 116.831 123.776C116.83 122.544 116.828 121.313 116.827 120.081C116.827 119.836 116.826 119.591 116.826 119.338C116.822 115.369 116.813 111.399 116.804 107.429C116.794 103.356 116.788 99.2825 116.786 95.2092C116.785 92.9213 116.781 90.6334 116.774 88.3455C116.767 86.1926 116.764 84.0399 116.766 81.887C116.766 81.0964 116.764 80.3057 116.76 79.515C116.754 78.4363 116.756 77.3578 116.758 76.2791C116.755 75.9655 116.752 75.6519 116.749 75.3288C116.766 73.0096 117.253 71.5731 118.829 69.8047C120.265 68.7105 121.8 68.8162 123.527 69.0618Z" fill="white"/>
</svg>
