<svg width="292" height="251" viewBox="0 0 292 251" fill="none" xmlns="http://www.w3.org/2000/svg">
<path d="M175.863 0.0109258C176.234 0.00732026 176.605 0.00371476 176.987 0C180.538 0.490295 183.57 2.03268 186.636 3.81309C187.012 4.02787 187.389 4.24265 187.777 4.46394C188.943 5.13113 190.106 5.80405 191.268 6.47898C191.622 6.6841 191.976 6.88922 192.341 7.10055C194.073 8.10555 195.802 9.11528 197.53 10.1282C199.735 11.4199 201.947 12.6983 204.161 13.9741C204.538 14.1917 204.916 14.4094 205.305 14.6336C206.071 15.0748 206.836 15.5159 207.602 15.9569C208.743 16.6144 209.884 17.2724 211.025 17.9306C211.4 18.147 211.775 18.3634 212.161 18.5864C212.913 19.02 213.664 19.4539 214.415 19.8881C216.182 20.9087 217.95 21.9267 219.723 22.9353C220.352 23.2929 220.98 23.6514 221.608 24.0101C222.396 24.4601 223.185 24.9087 223.976 25.3553C229.158 28.3199 229.158 28.3199 229.727 30.2535C229.897 32.0878 229.687 33.2519 228.678 34.7986C226.713 36.6865 224.308 37.9105 221.948 39.2344C221.505 39.4844 221.062 39.7346 220.62 39.9848C219.744 40.4794 218.868 40.9727 217.991 41.465C216.973 42.0381 215.958 42.6162 214.944 43.1978C211.685 45.0576 208.39 46.6879 204.903 48.0843C204.568 48.2207 204.233 48.3572 203.888 48.4978C185.659 55.747 163.953 55.1997 145.948 47.6254C142.036 45.92 138.31 43.9435 134.629 41.7911C134.304 41.6022 133.979 41.4133 133.644 41.2187C132.285 40.429 130.926 39.6392 129.572 38.8407C127.087 37.3771 124.58 35.9549 122.069 34.5375C121.696 34.327 121.323 34.1164 120.939 33.8995C120.025 33.3833 119.111 32.8672 118.197 32.3512C118.195 32.9808 118.195 32.9808 118.194 33.623C118.174 43.5858 118.149 53.5485 118.117 63.5112C118.113 64.7374 118.109 65.9637 118.105 67.1899C118.104 67.434 118.103 67.6781 118.102 67.9296C118.09 71.8825 118.081 75.8353 118.074 79.7881C118.066 83.844 118.055 87.8999 118.04 91.9558C118.031 94.234 118.025 96.5121 118.023 98.7903C118.021 100.934 118.014 103.078 118.003 105.221C118 106.008 117.998 106.796 117.999 107.583C118 108.657 117.994 109.731 117.986 110.805C117.989 111.274 117.989 111.274 117.992 111.751C117.965 114.057 117.467 115.492 115.924 117.266C114.66 118.223 113.473 118.21 111.929 118.176C109.915 117.863 108.34 116.784 106.637 115.715C106.038 115.354 105.439 114.993 104.839 114.633C104.221 114.26 103.604 113.883 102.988 113.506C101.073 112.34 99.1219 111.234 97.1754 110.121C93.9241 108.248 90.6813 106.36 87.4416 104.467C84.8927 102.979 82.3385 101.5 79.7816 100.025C79.4082 99.8098 79.0349 99.5941 78.6502 99.3719C76.8809 98.3508 75.11 97.3327 73.333 96.325C72.713 95.9732 72.0936 95.6203 71.4744 95.2672C70.7004 94.8261 69.9253 94.3869 69.1489 93.9501C64.5858 91.3438 61.1396 88.5481 59.4597 83.3964C59.0478 81.1721 59.0476 78.9699 59.039 76.7125C59.037 76.3033 59.035 75.894 59.033 75.4724C59.0297 74.6067 59.0274 73.7409 59.026 72.8752C59.0227 71.5694 59.0118 70.2638 59.0008 68.958C58.9542 58.4947 60.9892 48.9335 67.8507 40.7422C68.1418 40.3938 68.4329 40.0454 68.7329 39.6865C74.0547 33.5149 80.9617 29.4807 88.8281 27.4565C89.2085 27.3456 89.5889 27.2347 89.9808 27.1205C95.0028 25.8109 100.933 25.8519 105.96 27.1068C106.191 27.1614 106.423 27.2159 106.662 27.2721C110.079 28.0858 113.099 29.1323 116.162 30.8626C117.273 31.3581 117.446 31.3342 118.546 30.9527C119.088 30.6836 119.621 30.3961 120.147 30.0964C120.619 29.8284 120.619 29.8284 121.101 29.5551C121.441 29.3601 121.78 29.1651 122.13 28.9642C122.486 28.7611 122.843 28.558 123.21 28.3488C126.427 26.5106 129.627 24.6424 132.825 22.7707C136.181 20.8077 139.552 18.8704 142.921 16.9296C144.819 15.8361 146.717 14.7411 148.614 13.6463C149.369 13.2106 150.124 12.775 150.88 12.3393C152.806 11.2279 154.732 10.1157 156.658 9.00326C157.796 8.34667 158.934 7.69139 160.072 7.03619C161.491 6.21929 162.905 5.396 164.317 4.56697C164.961 4.19185 165.604 3.81673 166.248 3.44162C166.531 3.27343 166.814 3.10523 167.106 2.93195C169.815 1.36084 172.673 -0.0200047 175.863 0.0109258Z" fill="black"/>
<path d="M182.527 69.0618C183.792 69.5233 184.912 70.1674 186.067 70.8536C186.398 71.0419 186.728 71.2301 187.069 71.4241C188.124 72.0276 189.172 72.6417 190.219 73.2573C190.901 73.6524 191.583 74.0471 192.265 74.4414C193.661 75.2505 195.053 76.0644 196.444 76.8819C198.66 78.1836 200.885 79.4695 203.112 80.7524C203.489 80.97 203.867 81.1876 204.256 81.4117C205.021 81.853 205.787 82.2941 206.553 82.7352C207.694 83.3927 208.835 84.0507 209.976 84.7089C210.351 84.9252 210.726 85.1416 211.112 85.3645C211.865 85.7988 212.617 86.2332 213.369 86.6679C215.123 87.681 216.879 88.6922 218.638 89.6956C219.256 90.0479 219.873 90.401 220.49 90.7542C221.261 91.1949 222.032 91.6343 222.804 92.0721C228.848 95.5351 228.848 95.5351 231.125 98.0806C231.356 98.3258 231.587 98.571 231.825 98.8236C234.395 102.519 234.676 106.012 234.693 110.371C234.695 110.781 234.697 111.191 234.699 111.613C234.702 112.481 234.704 113.348 234.706 114.215C234.709 115.525 234.72 116.834 234.731 118.144C234.751 122.53 234.697 126.687 233.573 130.945C233.483 131.286 233.394 131.627 233.302 131.978C233.045 132.883 232.763 133.77 232.458 134.66C232.353 134.97 232.248 135.279 232.14 135.598C230.659 139.793 228.453 143.318 225.531 146.678C225.165 147.114 225.165 147.114 224.791 147.559C218.528 154.814 208.939 159.883 199.309 160.663C195.422 160.836 191.58 160.843 187.772 159.964C187.458 159.904 187.145 159.844 186.821 159.783C183.584 159.093 180.611 157.729 177.596 156.398C177.036 156.162 176.461 155.961 175.885 155.769C174.952 156.209 174.086 156.671 173.197 157.189C172.921 157.346 172.645 157.503 172.361 157.665C171.435 158.194 170.513 158.729 169.591 159.265C169.271 159.451 168.951 159.637 168.621 159.828C166.884 160.837 165.149 161.85 163.416 162.865C160.038 164.842 156.645 166.791 153.255 168.744C152.122 169.397 150.991 170.05 149.859 170.704C146.765 172.492 143.671 174.279 140.567 176.05C140.362 176.167 140.157 176.284 139.946 176.404C139.119 176.876 138.293 177.347 137.466 177.818C135.256 179.077 133.05 180.344 130.858 181.634C130.481 181.856 130.103 182.078 129.715 182.307C129.009 182.722 128.305 183.14 127.601 183.558C124.377 185.46 121.58 186.917 117.781 186.973C117.416 186.982 117.05 186.991 116.674 187C113.527 186.717 110.927 185.427 108.21 183.892C107.705 183.611 107.705 183.611 107.19 183.325C104.735 181.954 102.306 180.541 99.8891 179.103C97.9097 177.928 95.9142 176.781 93.9195 175.632C93.533 175.409 93.1465 175.186 92.7482 174.957C91.5582 174.271 90.368 173.586 89.1777 172.9C83.9884 169.912 78.8013 166.919 73.6344 163.892C72.3945 163.166 71.1504 162.449 69.9006 161.74C69.6261 161.582 69.3517 161.425 69.0689 161.263C68.5681 160.977 68.0658 160.693 67.5617 160.412C65.8114 159.405 64.6513 158.408 64.0047 156.468C63.8158 154.466 64.1265 153.476 65.4032 151.923C66.6097 150.884 67.8594 150.072 69.2423 149.287C69.44 149.174 69.6377 149.062 69.8414 148.945C70.4807 148.581 71.1213 148.22 71.762 147.858C72.2076 147.606 72.653 147.354 73.0985 147.102C73.7642 146.725 74.4301 146.348 75.0964 145.973C76.3111 145.288 77.5214 144.597 78.7272 143.896C85.6602 139.9 93.0831 136.978 100.89 135.228C101.197 135.159 101.503 135.089 101.819 135.018C107.019 133.916 112.261 133.608 117.563 133.633C117.842 133.634 118.122 133.634 118.41 133.635C123.063 133.65 127.601 133.921 132.182 134.791C132.436 134.838 132.691 134.885 132.954 134.933C143.229 136.889 152.549 141.368 161.451 146.698C163.552 147.942 165.677 149.144 167.8 150.35C168.6 150.804 169.4 151.26 170.2 151.715C170.539 151.907 170.877 152.1 171.226 152.298C172.226 152.878 173.218 153.467 174.209 154.063C174.523 154.251 174.837 154.44 175.161 154.634C175.4 154.778 175.638 154.921 175.885 155.069C175.884 154.648 175.883 154.226 175.882 153.792C175.859 143.787 175.842 133.781 175.831 123.776C175.83 122.544 175.828 121.313 175.827 120.081C175.827 119.836 175.826 119.591 175.826 119.338C175.822 115.369 175.813 111.399 175.804 107.429C175.794 103.356 175.788 99.2826 175.786 95.2093C175.785 92.9213 175.781 90.6334 175.774 88.3455C175.767 86.1927 175.764 84.0399 175.766 81.8871C175.766 81.0964 175.764 80.3057 175.76 79.515C175.754 78.4363 175.756 77.3578 175.758 76.2791C175.755 75.9655 175.752 75.6519 175.749 75.3289C175.766 73.0097 176.253 71.5731 177.829 69.8047C179.265 68.7106 180.8 68.8162 182.527 69.0618Z" fill="black"/>
<path d="M16.504 203.776L28.216 233.968C28.696 235.184 29.24 236 29.848 236.416C30.456 236.8 31.016 237.008 31.528 237.04V238C30.888 237.936 30.104 237.904 29.176 237.904C28.248 237.872 27.32 237.856 26.392 237.856C25.144 237.856 23.976 237.872 22.888 237.904C21.8 237.904 20.92 237.936 20.248 238V237.04C21.88 236.976 22.92 236.704 23.368 236.224C23.816 235.712 23.72 234.64 23.08 233.008L14.152 209.152L14.92 208.528L6.568 230.224C6.056 231.504 5.752 232.592 5.656 233.488C5.56 234.352 5.64 235.04 5.896 235.552C6.184 236.064 6.648 236.432 7.288 236.656C7.96 236.88 8.792 237.008 9.784 237.04V238C8.888 237.936 7.944 237.904 6.952 237.904C5.992 237.872 5.096 237.856 4.264 237.856C3.464 237.856 2.776 237.872 2.2 237.904C1.656 237.904 1.144 237.936 0.664 238V237.04C1.304 236.88 1.96 236.512 2.632 235.936C3.304 235.328 3.912 234.304 4.456 232.864L15.736 203.776C15.864 203.776 15.992 203.776 16.12 203.776C16.248 203.776 16.376 203.776 16.504 203.776ZM22.36 224.176V225.136H8.056L8.536 224.176H22.36ZM57.2853 212.752V232.816C57.2853 234.256 57.5413 235.328 58.0533 236.032C58.5973 236.704 59.5573 237.04 60.9333 237.04V238.048C59.9412 237.952 58.9492 237.904 57.9573 237.904C57.0293 237.904 56.1333 237.952 55.2693 238.048C54.4373 238.144 53.6693 238.32 52.9653 238.576V232.912C52.1653 234.992 51.0293 236.48 49.5573 237.376C48.1173 238.24 46.6293 238.672 45.0933 238.672C43.9733 238.672 42.9973 238.512 42.1653 238.192C41.3333 237.872 40.6452 237.424 40.1012 236.848C39.4932 236.208 39.0773 235.376 38.8533 234.352C38.6293 233.328 38.5173 232.064 38.5173 230.56V218.512C38.5173 217.072 38.2613 216.016 37.7492 215.344C37.2372 214.64 36.2772 214.288 34.8692 214.288V213.28C35.8932 213.376 36.8852 213.424 37.8452 213.424C38.7732 213.424 39.6532 213.376 40.4852 213.28C41.3493 213.152 42.1333 212.976 42.8373 212.752V231.616C42.8373 232.608 42.9013 233.52 43.0292 234.352C43.1573 235.184 43.4773 235.856 43.9893 236.368C44.5013 236.88 45.3333 237.136 46.4853 237.136C47.7333 237.136 48.8373 236.752 49.7973 235.984C50.7893 235.216 51.5573 234.176 52.1013 232.864C52.6773 231.552 52.9653 230.08 52.9653 228.448V218.512C52.9653 217.072 52.7092 216.016 52.1972 215.344C51.6853 214.64 50.7253 214.288 49.3172 214.288V213.28C50.3412 213.376 51.3333 213.424 52.2933 213.424C53.2213 213.424 54.1013 213.376 54.9333 213.28C55.7973 213.152 56.5813 212.976 57.2853 212.752ZM82.6319 212.608C83.4959 212.608 84.2479 212.784 84.8879 213.136C85.5599 213.488 86.0719 213.952 86.4239 214.528C86.8079 215.072 86.9999 215.696 86.9999 216.4C86.9999 217.2 86.7439 217.904 86.2319 218.512C85.7519 219.12 85.0959 219.424 84.2639 219.424C83.5919 219.424 82.9999 219.216 82.4879 218.8C81.9759 218.352 81.7199 217.728 81.7199 216.928C81.7199 216.32 81.8799 215.808 82.1999 215.392C82.5519 214.944 82.9359 214.592 83.3519 214.336C83.1279 214.016 82.7919 213.856 82.3439 213.856C81.3519 213.856 80.4399 214.16 79.6079 214.768C78.7759 215.344 78.0719 216.096 77.4959 217.024C76.9199 217.952 76.4719 218.944 76.1519 220C75.8319 221.024 75.6719 221.984 75.6719 222.88V233.056C75.6719 234.624 76.1199 235.68 77.0159 236.224C77.9439 236.736 79.1919 236.992 80.7599 236.992V238C80.0239 237.968 78.9839 237.936 77.6399 237.904C76.2959 237.84 74.8719 237.808 73.3679 237.808C72.2799 237.808 71.1919 237.84 70.1039 237.904C69.0479 237.936 68.2479 237.968 67.7039 238V236.992C69.0159 236.992 69.9439 236.752 70.4879 236.272C71.0639 235.792 71.3519 234.88 71.3519 233.536V218.512C71.3519 217.072 71.0959 216.016 70.5839 215.344C70.0719 214.64 69.1119 214.288 67.7039 214.288V213.28C68.7279 213.376 69.7199 213.424 70.6799 213.424C71.6079 213.424 72.4879 213.376 73.3199 213.28C74.1839 213.152 74.9679 212.976 75.6719 212.752V218.752C76.0239 217.824 76.5199 216.896 77.1599 215.968C77.8319 215.008 78.6319 214.208 79.5599 213.568C80.4879 212.928 81.5119 212.608 82.6319 212.608ZM104.221 212.608C106.269 212.608 108.109 213.056 109.741 213.952C111.373 214.848 112.669 216.256 113.629 218.176C114.621 220.096 115.117 222.592 115.117 225.664C115.117 228.736 114.621 231.232 113.629 233.152C112.669 235.04 111.373 236.432 109.741 237.328C108.109 238.224 106.269 238.672 104.221 238.672C102.205 238.672 100.365 238.224 98.7014 237.328C97.0694 236.432 95.7574 235.04 94.7654 233.152C93.8054 231.232 93.3254 228.736 93.3254 225.664C93.3254 222.592 93.8054 220.096 94.7654 218.176C95.7574 216.256 97.0694 214.848 98.7014 213.952C100.365 213.056 102.205 212.608 104.221 212.608ZM104.221 213.568C102.397 213.568 100.893 214.512 99.7094 216.4C98.5574 218.288 97.9814 221.376 97.9814 225.664C97.9814 229.952 98.5574 233.04 99.7094 234.928C100.893 236.784 102.397 237.712 104.221 237.712C106.045 237.712 107.533 236.784 108.685 234.928C109.869 233.04 110.461 229.952 110.461 225.664C110.461 221.376 109.869 218.288 108.685 216.4C107.533 214.512 106.045 213.568 104.221 213.568ZM138.006 212.608C138.87 212.608 139.622 212.784 140.262 213.136C140.934 213.488 141.446 213.952 141.798 214.528C142.182 215.072 142.374 215.696 142.374 216.4C142.374 217.2 142.118 217.904 141.606 218.512C141.126 219.12 140.47 219.424 139.638 219.424C138.966 219.424 138.374 219.216 137.862 218.8C137.35 218.352 137.094 217.728 137.094 216.928C137.094 216.32 137.254 215.808 137.574 215.392C137.926 214.944 138.31 214.592 138.726 214.336C138.502 214.016 138.166 213.856 137.718 213.856C136.726 213.856 135.814 214.16 134.982 214.768C134.15 215.344 133.446 216.096 132.87 217.024C132.294 217.952 131.846 218.944 131.526 220C131.206 221.024 131.046 221.984 131.046 222.88V233.056C131.046 234.624 131.494 235.68 132.39 236.224C133.318 236.736 134.566 236.992 136.134 236.992V238C135.398 237.968 134.358 237.936 133.014 237.904C131.67 237.84 130.246 237.808 128.742 237.808C127.654 237.808 126.566 237.84 125.478 237.904C124.422 237.936 123.622 237.968 123.078 238V236.992C124.39 236.992 125.318 236.752 125.862 236.272C126.438 235.792 126.726 234.88 126.726 233.536V218.512C126.726 217.072 126.47 216.016 125.958 215.344C125.446 214.64 124.486 214.288 123.078 214.288V213.28C124.102 213.376 125.094 213.424 126.054 213.424C126.982 213.424 127.862 213.376 128.694 213.28C129.558 213.152 130.342 212.976 131.046 212.752V218.752C131.398 217.824 131.894 216.896 132.534 215.968C133.206 215.008 134.006 214.208 134.934 213.568C135.862 212.928 136.886 212.608 138.006 212.608ZM155.589 238.336C154.277 238.336 153.141 238.096 152.181 237.616C151.221 237.104 150.485 236.4 149.973 235.504C149.493 234.608 149.253 233.568 149.253 232.384C149.253 230.976 149.573 229.824 150.213 228.928C150.885 228.032 151.733 227.312 152.757 226.768C153.781 226.224 154.853 225.776 155.973 225.424C157.125 225.04 158.213 224.688 159.237 224.368C160.261 224.016 161.093 223.616 161.733 223.168C162.405 222.72 162.741 222.128 162.741 221.392V218.416C162.741 217.072 162.533 216.048 162.117 215.344C161.733 214.64 161.205 214.176 160.533 213.952C159.861 213.696 159.109 213.568 158.277 213.568C157.477 213.568 156.613 213.68 155.685 213.904C154.789 214.128 154.069 214.592 153.525 215.296C154.133 215.424 154.661 215.744 155.109 216.256C155.557 216.768 155.781 217.424 155.781 218.224C155.781 219.024 155.525 219.664 155.013 220.144C154.501 220.592 153.845 220.816 153.045 220.816C152.117 220.816 151.429 220.528 150.981 219.952C150.565 219.344 150.357 218.672 150.357 217.936C150.357 217.104 150.565 216.432 150.981 215.92C151.397 215.408 151.925 214.928 152.565 214.48C153.301 213.968 154.245 213.536 155.397 213.184C156.581 212.8 157.909 212.608 159.381 212.608C160.693 212.608 161.813 212.768 162.741 213.088C163.669 213.376 164.437 213.808 165.045 214.384C165.877 215.152 166.421 216.096 166.677 217.216C166.933 218.304 167.061 219.616 167.061 221.152V234.496C167.061 235.296 167.173 235.872 167.397 236.224C167.653 236.576 168.037 236.752 168.549 236.752C168.901 236.752 169.237 236.672 169.557 236.512C169.877 236.352 170.261 236.096 170.709 235.744L171.237 236.56C170.565 237.072 169.925 237.504 169.317 237.856C168.709 238.176 167.893 238.336 166.869 238.336C165.941 238.336 165.173 238.176 164.565 237.856C163.957 237.536 163.493 237.072 163.173 236.464C162.885 235.824 162.741 235.024 162.741 234.064C161.877 235.504 160.837 236.576 159.621 237.28C158.437 237.984 157.093 238.336 155.589 238.336ZM157.317 236.416C158.373 236.416 159.349 236.112 160.245 235.504C161.173 234.896 162.005 233.984 162.741 232.768V223.36C162.357 223.904 161.797 224.368 161.061 224.752C160.325 225.104 159.525 225.472 158.661 225.856C157.797 226.208 156.965 226.64 156.165 227.152C155.397 227.632 154.757 228.272 154.245 229.072C153.733 229.872 153.477 230.912 153.477 232.192C153.477 233.472 153.813 234.496 154.485 235.264C155.189 236.032 156.133 236.416 157.317 236.416ZM211.19 238.192C208.278 238.192 206.006 237.52 204.374 236.176C203.766 235.696 202.934 234.768 201.878 233.392L201.494 233.728C200.918 234.336 200.246 234.896 199.478 235.408C198.742 235.888 197.91 236.352 196.982 236.8C195.062 237.632 193.19 238.048 191.366 238.048C188.87 238.048 186.79 237.36 185.126 235.984C183.43 234.576 182.582 232.848 182.582 230.8C182.582 228.624 183.574 226.448 185.558 224.272C185.686 224.112 185.814 223.968 185.942 223.84C186.102 223.68 186.246 223.536 186.374 223.408L188.774 221.056C189.03 220.8 189.462 220.384 190.07 219.808C190.71 219.232 191.558 218.496 192.614 217.6L192.134 216.736C191.718 216.128 191.366 215.552 191.078 215.008C190.79 214.464 190.55 213.952 190.358 213.472L190.166 213.04C189.878 212.56 189.734 212.144 189.734 211.792C189.734 211.536 189.798 211.328 189.926 211.168C189.99 210.464 190.214 209.936 190.598 209.584L192.95 207.232C193.014 207.168 193.078 207.104 193.142 207.04C193.238 206.944 193.334 206.864 193.43 206.8C194.518 206 195.702 205.6 196.982 205.6C198.038 205.6 198.886 205.872 199.526 206.416C200.262 207.024 200.63 207.824 200.63 208.816C200.63 209.04 200.614 209.28 200.582 209.536C200.55 209.792 200.486 210.048 200.39 210.304C200.166 211.04 199.542 211.92 198.518 212.944L196.166 215.344C195.942 215.536 195.718 215.744 195.494 215.968C195.302 216.16 195.094 216.368 194.87 216.592C199.03 222.96 202.134 227.36 204.182 229.792C205.622 227.488 206.358 224.912 206.39 222.064C206.422 222 206.438 221.92 206.438 221.824C206.438 221.728 206.438 221.664 206.438 221.632C206.438 221.248 206.406 220.928 206.342 220.672C205.222 220.608 204.086 220.56 202.934 220.528C201.814 220.464 200.678 220.432 199.526 220.432L200.678 219.424L213.494 219.472C213.526 219.472 213.542 219.488 213.542 219.52C213.542 219.68 213.158 220 212.39 220.48C211.622 221.024 211.062 221.264 210.71 221.2C210.102 221.104 209.414 221.008 208.646 220.912C208.486 224.816 207.254 228.048 204.95 230.608C205.334 231.024 205.766 231.504 206.246 232.048C206.726 232.56 207.27 233.136 207.878 233.776C210.406 236.08 212.726 237.2 214.838 237.136L214.406 238C213.798 238.032 213.222 238.064 212.678 238.096C212.134 238.16 211.638 238.192 211.19 238.192ZM194.438 215.968C196.134 214.4 197.142 213.312 197.462 212.704C197.814 212.128 197.99 211.472 197.99 210.736C197.99 209.968 197.782 209.376 197.366 208.96C196.598 208.192 195.686 207.808 194.63 207.808C192.966 207.808 192.134 208.656 192.134 210.352C192.134 211.696 192.646 213.152 193.67 214.72L194.438 215.968ZM194.342 235.36C195.782 235.36 197.318 234.992 198.95 234.256C199.782 233.904 200.598 233.392 201.398 232.72L197.318 226.096C196.934 225.488 196.39 224.56 195.686 223.312C194.982 222.032 194.118 220.432 193.094 218.512L189.926 221.728C188.006 223.744 187.046 225.936 187.046 228.304C187.046 230.256 187.718 231.904 189.062 233.248C190.47 234.656 192.23 235.36 194.342 235.36ZM239.317 203.344C241.429 203.344 243.157 203.664 244.501 204.304C245.877 204.912 247.093 205.632 248.149 206.464C248.789 206.944 249.269 207.008 249.589 206.656C249.941 206.272 250.181 205.392 250.309 204.016H251.413C251.349 205.2 251.301 206.64 251.269 208.336C251.237 210.032 251.221 212.272 251.221 215.056H250.117C249.893 213.68 249.685 212.592 249.493 211.792C249.301 210.96 249.061 210.256 248.773 209.68C248.517 209.104 248.165 208.528 247.717 207.952C246.725 206.64 245.477 205.696 243.973 205.12C242.469 204.512 240.885 204.208 239.221 204.208C237.653 204.208 236.229 204.608 234.949 205.408C233.701 206.176 232.613 207.296 231.685 208.768C230.789 210.24 230.085 212.016 229.573 214.096C229.093 216.176 228.853 218.512 228.853 221.104C228.853 223.792 229.125 226.176 229.669 228.256C230.213 230.304 230.965 232.032 231.925 233.44C232.917 234.848 234.069 235.92 235.381 236.656C236.725 237.36 238.165 237.712 239.701 237.712C241.141 237.712 242.645 237.424 244.213 236.848C245.781 236.272 247.013 235.344 247.909 234.064C248.613 233.136 249.093 232.128 249.349 231.04C249.637 229.952 249.893 228.432 250.117 226.48H251.221C251.221 229.392 251.237 231.744 251.269 233.536C251.301 235.296 251.349 236.784 251.413 238H250.309C250.181 236.624 249.957 235.76 249.637 235.408C249.349 235.056 248.853 235.104 248.149 235.552C246.965 236.384 245.701 237.12 244.357 237.76C243.045 238.368 241.349 238.672 239.269 238.672C236.229 238.672 233.557 237.984 231.253 236.608C228.981 235.232 227.205 233.248 225.925 230.656C224.677 228.064 224.053 224.944 224.053 221.296C224.053 217.712 224.709 214.576 226.021 211.888C227.333 209.2 229.125 207.104 231.397 205.6C233.701 204.096 236.341 203.344 239.317 203.344ZM270.924 203.344C273.964 203.344 276.62 204.032 278.892 205.408C281.196 206.784 282.972 208.768 284.22 211.36C285.5 213.92 286.14 217.04 286.14 220.72C286.14 224.304 285.484 227.44 284.172 230.128C282.892 232.816 281.1 234.912 278.796 236.416C276.492 237.92 273.852 238.672 270.876 238.672C267.836 238.672 265.164 237.984 262.86 236.608C260.588 235.232 258.812 233.248 257.532 230.656C256.284 228.064 255.66 224.944 255.66 221.296C255.66 217.712 256.316 214.576 257.628 211.888C258.94 209.2 260.732 207.104 263.004 205.6C265.308 204.096 267.948 203.344 270.924 203.344ZM270.732 204.208C268.652 204.208 266.844 204.928 265.308 206.368C263.772 207.808 262.572 209.792 261.708 212.32C260.876 214.848 260.46 217.776 260.46 221.104C260.46 224.496 260.924 227.456 261.852 229.984C262.812 232.48 264.092 234.416 265.692 235.792C267.324 237.136 269.116 237.808 271.068 237.808C273.148 237.808 274.956 237.088 276.492 235.648C278.028 234.208 279.212 232.224 280.044 229.696C280.908 227.136 281.34 224.208 281.34 220.912C281.34 217.488 280.86 214.528 279.9 212.032C278.972 209.536 277.708 207.616 276.108 206.272C274.508 204.896 272.716 204.208 270.732 204.208Z" fill="black"/>
</svg>
